STARTFONT 2.1
COMMENT
COMMENT Converted from OpenType font "Oxanium-Bold.ttf" by "otf2bdf 3.0".
COMMENT
FONT -FreeType-Oxanium-Bold-R-Normal--17-170-72-72-P-81-ISO10646-1
SIZE 17 72 72
FONTBOUNDINGBOX 29 21 -8 -4
STARTPROPERTIES 19
FOUNDRY "FreeType"
FAMILY_NAME "Oxanium"
WEIGHT_NAME "Bold"
SLANT "R"
SETWIDTH_NAME "Normal"
ADD_STYLE_NAME ""
PIXEL_SIZE 17
POINT_SIZE 170
RESOLUTION_X 72
RESOLUTION_Y 72
SPACING "P"
AVERAGE_WIDTH 81
CHARSET_REGISTRY "ISO10646"
CHARSET_ENCODING "1"
FONT_ASCENT 13
FONT_DESCENT 3
COPYRIGHT "Copyright 2019 The Oxanium Project Authors (https://github.com/sevmeyer/oxanium)"
_OTF_FONTFILE "Oxanium-Bold.ttf"
_OTF_PSNAME "Oxanium-Bold"
ENDPROPERTIES
CHARS 357
STARTCHAR 0000
ENCODING 0
SWIDTH 0 0
DWIDTH 0 0
BBX 0 0 0 0
BITMAP
ENDCHAR
STARTCHAR 000D
ENCODING 13
SWIDTH 235 0
DWIDTH 4 0
BBX 0 0 0 0
BITMAP
ENDCHAR
STARTCHAR 0020
ENCODING 32
SWIDTH 235 0
DWIDTH 4 0
BBX 0 0 0 0
BITMAP
ENDCHAR
STARTCHAR 0021
ENCODING 33
SWIDTH 294 0
DWIDTH 5 0
BBX 3 12 1 0
BITMAP
E0
E0
E0
E0
E0
E0
E0
E0
00
E0
E0
E0
ENDCHAR
STARTCHAR 0022
ENCODING 34
SWIDTH 470 0
DWIDTH 8 0
BBX 6 5 1 8
BITMAP
CC
CC
CC
CC
CC
ENDCHAR
STARTCHAR 0023
ENCODING 35
SWIDTH 705 0
DWIDTH 12 0
BBX 10 12 1 0
BITMAP
3300
3300
3300
FFC0
FFC0
3300
3300
FFC0
FFC0
3300
3300
3300
ENDCHAR
STARTCHAR 0024
ENCODING 36
SWIDTH 588 0
DWIDTH 10 0
BBX 8 15 1 -2
BITMAP
18
18
7E
FF
C0
C0
F8
7E
1F
07
07
FF
FE
18
18
ENDCHAR
STARTCHAR 0025
ENCODING 37
SWIDTH 882 0
DWIDTH 15 0
BBX 13 12 1 0
BITMAP
F080
F8C0
9980
9980
9B78
9BF8
FEC8
F6C8
0CC8
0CC8
18F8
0878
ENDCHAR
STARTCHAR 0026
ENCODING 38
SWIDTH 647 0
DWIDTH 11 0
BBX 10 12 1 0
BITMAP
7E00
7E00
E000
E000
E000
7FC0
7FC0
C300
C300
C300
FF00
7F00
ENDCHAR
STARTCHAR 0027
ENCODING 39
SWIDTH 235 0
DWIDTH 4 0
BBX 2 5 1 8
BITMAP
C0
C0
C0
C0
C0
ENDCHAR
STARTCHAR 0028
ENCODING 40
SWIDTH 352 0
DWIDTH 6 0
BBX 5 16 1 -3
BITMAP
30
38
70
60
60
E0
E0
C0
C0
E0
E0
60
60
70
38
30
ENDCHAR
STARTCHAR 0029
ENCODING 41
SWIDTH 352 0
DWIDTH 6 0
BBX 5 16 0 -3
BITMAP
40
E0
70
30
30
38
38
38
38
38
38
30
30
70
E0
40
ENDCHAR
STARTCHAR 002A
ENCODING 42
SWIDTH 529 0
DWIDTH 9 0
BBX 7 7 1 5
BITMAP
30
30
FE
FE
38
6C
48
ENDCHAR
STARTCHAR 002B
ENCODING 43
SWIDTH 588 0
DWIDTH 10 0
BBX 8 8 1 2
BITMAP
18
18
18
FF
FF
18
18
18
ENDCHAR
STARTCHAR 002C
ENCODING 44
SWIDTH 294 0
DWIDTH 5 0
BBX 4 5 0 -2
BITMAP
70
60
60
60
C0
ENDCHAR
STARTCHAR 002D
ENCODING 45
SWIDTH 352 0
DWIDTH 6 0
BBX 5 2 1 4
BITMAP
F8
F8
ENDCHAR
STARTCHAR 002E
ENCODING 46
SWIDTH 294 0
DWIDTH 5 0
BBX 3 3 1 0
BITMAP
E0
E0
E0
ENDCHAR
STARTCHAR 002F
ENCODING 47
SWIDTH 411 0
DWIDTH 7 0
BBX 7 14 0 -1
BITMAP
04
06
0C
0C
1C
18
18
38
30
30
70
60
60
C0
ENDCHAR
STARTCHAR 0030
ENCODING 48
SWIDTH 588 0
DWIDTH 10 0
BBX 8 12 1 0
BITMAP
7E
FF
C7
C7
C7
C7
C7
C7
C7
C7
FF
7E
ENDCHAR
STARTCHAR 0031
ENCODING 49
SWIDTH 588 0
DWIDTH 10 0
BBX 8 12 1 0
BITMAP
78
78
18
18
18
18
18
18
18
18
FF
FF
ENDCHAR
STARTCHAR 0032
ENCODING 50
SWIDTH 588 0
DWIDTH 10 0
BBX 8 12 1 0
BITMAP
7E
FF
07
07
07
7F
FE
E0
C0
C0
FF
FF
ENDCHAR
STARTCHAR 0033
ENCODING 51
SWIDTH 588 0
DWIDTH 10 0
BBX 8 12 1 0
BITMAP
7E
FF
07
07
07
7E
7F
07
07
07
FF
7E
ENDCHAR
STARTCHAR 0034
ENCODING 52
SWIDTH 588 0
DWIDTH 10 0
BBX 8 12 1 0
BITMAP
1C
18
38
38
30
77
67
E7
FF
FF
07
07
ENDCHAR
STARTCHAR 0035
ENCODING 53
SWIDTH 588 0
DWIDTH 10 0
BBX 8 12 1 0
BITMAP
FE
FE
C0
C0
C0
FE
FF
07
07
07
FF
FE
ENDCHAR
STARTCHAR 0036
ENCODING 54
SWIDTH 588 0
DWIDTH 10 0
BBX 8 12 1 0
BITMAP
7E
FE
E0
C0
C0
FE
FF
C7
C7
C7
FF
7E
ENDCHAR
STARTCHAR 0037
ENCODING 55
SWIDTH 588 0
DWIDTH 10 0
BBX 8 12 1 0
BITMAP
FF
FF
07
07
07
0E
0C
1C
18
38
30
70
ENDCHAR
STARTCHAR 0038
ENCODING 56
SWIDTH 588 0
DWIDTH 10 0
BBX 8 12 1 0
BITMAP
7E
FF
C7
C7
C7
7E
FF
C7
C7
C7
FF
7E
ENDCHAR
STARTCHAR 0039
ENCODING 57
SWIDTH 588 0
DWIDTH 10 0
BBX 8 12 1 0
BITMAP
7E
FF
C7
C7
C7
FF
7F
07
07
07
FF
7E
ENDCHAR
STARTCHAR 003A
ENCODING 58
SWIDTH 294 0
DWIDTH 5 0
BBX 3 10 1 0
BITMAP
E0
E0
E0
00
00
00
00
E0
E0
E0
ENDCHAR
STARTCHAR 003B
ENCODING 59
SWIDTH 294 0
DWIDTH 5 0
BBX 4 12 0 -2
BITMAP
70
70
70
00
00
00
00
70
60
60
60
C0
ENDCHAR
STARTCHAR 003C
ENCODING 60
SWIDTH 588 0
DWIDTH 10 0
BBX 8 9 1 1
BITMAP
02
0F
3E
F0
C0
F0
3E
0F
02
ENDCHAR
STARTCHAR 003D
ENCODING 61
SWIDTH 588 0
DWIDTH 10 0
BBX 8 6 1 3
BITMAP
FF
FF
00
00
FF
FF
ENDCHAR
STARTCHAR 003E
ENCODING 62
SWIDTH 588 0
DWIDTH 10 0
BBX 8 9 1 1
BITMAP
40
F0
7C
1F
03
1F
7C
F0
40
ENDCHAR
STARTCHAR 003F
ENCODING 63
SWIDTH 529 0
DWIDTH 9 0
BBX 7 12 1 0
BITMAP
FC
FE
06
06
06
3E
3C
30
00
30
30
30
ENDCHAR
STARTCHAR 0040
ENCODING 64
SWIDTH 823 0
DWIDTH 14 0
BBX 11 13 1 -1
BITMAP
7FE0
7FE0
E060
E7E0
EFE0
EC60
EC60
EC60
EFE0
E7E0
E000
7FE0
7FE0
ENDCHAR
STARTCHAR 0041
ENCODING 65
SWIDTH 647 0
DWIDTH 11 0
BBX 11 12 0 0
BITMAP
0F00
1F00
1B00
1B80
3980
3980
3180
3FC0
7FC0
60C0
60E0
E060
ENDCHAR
STARTCHAR 0042
ENCODING 66
SWIDTH 647 0
DWIDTH 11 0
BBX 9 12 1 0
BITMAP
FF00
FF80
E380
E380
E380
FF00
FF80
E180
E180
E180
FF80
FF00
ENDCHAR
STARTCHAR 0043
ENCODING 67
SWIDTH 647 0
DWIDTH 11 0
BBX 9 12 1 0
BITMAP
7F00
FF80
E000
E000
E000
E000
E000
E000
E000
E000
FF80
7F00
ENDCHAR
STARTCHAR 0044
ENCODING 68
SWIDTH 705 0
DWIDTH 12 0
BBX 10 12 1 0
BITMAP
FE00
FF80
E380
E1C0
E1C0
E1C0
E1C0
E1C0
E1C0
E380
FF80
FE00
ENDCHAR
STARTCHAR 0045
ENCODING 69
SWIDTH 588 0
DWIDTH 10 0
BBX 8 12 1 0
BITMAP
FF
FF
E0
E0
E0
FF
FF
E0
E0
E0
FF
FF
ENDCHAR
STARTCHAR 0046
ENCODING 70
SWIDTH 588 0
DWIDTH 10 0
BBX 8 12 1 0
BITMAP
FF
FF
E0
E0
E0
FF
FF
E0
E0
E0
E0
E0
ENDCHAR
STARTCHAR 0047
ENCODING 71
SWIDTH 705 0
DWIDTH 12 0
BBX 9 12 1 0
BITMAP
7F80
FF80
E000
E000
E000
E780
E780
E180
E180
E180
FF80
7F80
ENDCHAR
STARTCHAR 0048
ENCODING 72
SWIDTH 705 0
DWIDTH 12 0
BBX 10 12 1 0
BITMAP
E1C0
E1C0
E1C0
E1C0
E1C0
FFC0
FFC0
E1C0
E1C0
E1C0
E1C0
E1C0
ENDCHAR
STARTCHAR 0049
ENCODING 73
SWIDTH 294 0
DWIDTH 5 0
BBX 3 12 1 0
BITMAP
E0
E0
E0
E0
E0
E0
E0
E0
E0
E0
E0
E0
ENDCHAR
STARTCHAR 004A
ENCODING 74
SWIDTH 588 0
DWIDTH 10 0
BBX 8 12 1 0
BITMAP
3F
3F
03
03
03
03
03
C3
C3
C3
FF
7E
ENDCHAR
STARTCHAR 004B
ENCODING 75
SWIDTH 647 0
DWIDTH 11 0
BBX 10 12 1 0
BITMAP
E1C0
E380
E700
EE00
FC00
FC00
FE00
E600
E700
E380
E380
E1C0
ENDCHAR
STARTCHAR 004C
ENCODING 76
SWIDTH 529 0
DWIDTH 9 0
BBX 8 12 1 0
BITMAP
E0
E0
E0
E0
E0
E0
E0
E0
E0
E0
FF
FF
ENDCHAR
STARTCHAR 004D
ENCODING 77
SWIDTH 882 0
DWIDTH 15 0
BBX 13 12 1 0
BITMAP
F038
F078
F078
F8F8
F8F8
FDF8
EDB8
EFB8
E7B8
E738
E038
E038
ENDCHAR
STARTCHAR 004E
ENCODING 78
SWIDTH 764 0
DWIDTH 13 0
BBX 10 12 1 0
BITMAP
E0C0
F0C0
F8C0
F8C0
FCC0
ECC0
EEC0
E6C0
E7C0
E3C0
E1C0
E1C0
ENDCHAR
STARTCHAR 004F
ENCODING 79
SWIDTH 705 0
DWIDTH 12 0
BBX 10 12 1 0
BITMAP
7F80
FFC0
E1C0
E1C0
E1C0
E1C0
E1C0
E1C0
E1C0
E1C0
FFC0
7F80
ENDCHAR
STARTCHAR 0050
ENCODING 80
SWIDTH 647 0
DWIDTH 11 0
BBX 9 12 1 0
BITMAP
FF00
FF80
E380
E180
E180
E180
FF80
FF00
E000
E000
E000
E000
ENDCHAR
STARTCHAR 0051
ENCODING 81
SWIDTH 705 0
DWIDTH 12 0
BBX 10 15 1 -3
BITMAP
7F80
FFC0
E1C0
E1C0
E1C0
E1C0
E1C0
E1C0
E1C0
E1C0
FFC0
7F80
0300
0380
0380
ENDCHAR
STARTCHAR 0052
ENCODING 82
SWIDTH 647 0
DWIDTH 11 0
BBX 9 12 1 0
BITMAP
FF00
FF80
E380
E180
E180
E380
FF80
FF00
E700
E300
E380
E180
ENDCHAR
STARTCHAR 0053
ENCODING 83
SWIDTH 588 0
DWIDTH 10 0
BBX 8 12 1 0
BITMAP
7E
FF
C0
C0
E0
FE
7F
03
03
03
FF
FE
ENDCHAR
STARTCHAR 0054
ENCODING 84
SWIDTH 588 0
DWIDTH 10 0
BBX 10 12 0 0
BITMAP
FFC0
FFC0
0C00
0C00
0C00
0C00
0C00
0C00
0C00
0C00
0C00
0C00
ENDCHAR
STARTCHAR 0055
ENCODING 85
SWIDTH 705 0
DWIDTH 12 0
BBX 10 12 1 0
BITMAP
E1C0
E1C0
E1C0
E1C0
E1C0
E1C0
E1C0
E1C0
E1C0
E1C0
7F80
7F80
ENDCHAR
STARTCHAR 0056
ENCODING 86
SWIDTH 647 0
DWIDTH 11 0
BBX 11 12 0 0
BITMAP
E0E0
60E0
60C0
71C0
71C0
3180
3980
3B80
1B80
1B00
1F00
1F00
ENDCHAR
STARTCHAR 0057
ENCODING 87
SWIDTH 941 0
DWIDTH 16 0
BBX 16 12 0 0
BITMAP
E007
6187
61C6
63C6
73C6
73CE
33EE
376C
366C
3E6C
3E7C
1E7C
ENDCHAR
STARTCHAR 0058
ENCODING 88
SWIDTH 647 0
DWIDTH 11 0
BBX 11 12 0 0
BITMAP
60C0
71C0
3B80
1B00
1F00
0E00
0E00
1F00
3B80
3180
71C0
E0E0
ENDCHAR
STARTCHAR 0059
ENCODING 89
SWIDTH 588 0
DWIDTH 10 0
BBX 10 12 0 0
BITMAP
E0C0
61C0
7180
3380
3B00
1F00
1E00
0E00
0C00
0C00
0C00
0C00
ENDCHAR
STARTCHAR 005A
ENCODING 90
SWIDTH 588 0
DWIDTH 10 0
BBX 9 12 1 0
BITMAP
FF00
FF00
0700
0E00
0E00
1C00
3800
3000
7000
E000
FF80
FF80
ENDCHAR
STARTCHAR 005B
ENCODING 91
SWIDTH 411 0
DWIDTH 7 0
BBX 5 16 1 -3
BITMAP
F8
F8
E0
E0
E0
E0
E0
E0
E0
E0
E0
E0
E0
E0
F8
F8
ENDCHAR
STARTCHAR 005C
ENCODING 92
SWIDTH 411 0
DWIDTH 7 0
BBX 7 14 0 -1
BITMAP
C0
60
60
70
30
30
38
18
18
1C
0C
0C
06
04
ENDCHAR
STARTCHAR 005D
ENCODING 93
SWIDTH 411 0
DWIDTH 7 0
BBX 4 16 1 -3
BITMAP
F0
F0
30
30
30
30
30
30
30
30
30
30
30
30
F0
F0
ENDCHAR
STARTCHAR 005E
ENCODING 94
SWIDTH 588 0
DWIDTH 10 0
BBX 8 7 1 5
BITMAP
38
3C
7C
66
E6
C3
42
ENDCHAR
STARTCHAR 005F
ENCODING 95
SWIDTH 588 0
DWIDTH 10 0
BBX 8 2 1 -4
BITMAP
FF
FF
ENDCHAR
STARTCHAR 0060
ENCODING 96
SWIDTH 529 0
DWIDTH 9 0
BBX 4 4 2 10
BITMAP
40
E0
70
20
ENDCHAR
STARTCHAR 0061
ENCODING 97
SWIDTH 529 0
DWIDTH 9 0
BBX 7 9 1 0
BITMAP
7C
7E
06
7E
FE
C6
C6
FE
7E
ENDCHAR
STARTCHAR 0062
ENCODING 98
SWIDTH 588 0
DWIDTH 10 0
BBX 8 13 1 0
BITMAP
E0
E0
E0
E0
FE
FF
E3
E3
E3
E3
E3
FF
FE
ENDCHAR
STARTCHAR 0063
ENCODING 99
SWIDTH 529 0
DWIDTH 9 0
BBX 7 9 1 0
BITMAP
7E
FE
C0
C0
C0
C0
C0
FE
7E
ENDCHAR
STARTCHAR 0064
ENCODING 100
SWIDTH 588 0
DWIDTH 10 0
BBX 8 13 1 0
BITMAP
07
07
07
07
7F
FF
C7
C7
C7
C7
C7
FF
7F
ENDCHAR
STARTCHAR 0065
ENCODING 101
SWIDTH 588 0
DWIDTH 10 0
BBX 8 9 1 0
BITMAP
7E
FF
C7
FF
FF
C0
C0
FE
7E
ENDCHAR
STARTCHAR 0066
ENCODING 102
SWIDTH 411 0
DWIDTH 7 0
BBX 6 13 1 0
BITMAP
78
FC
E0
E0
FC
FC
E0
E0
E0
E0
E0
E0
E0
ENDCHAR
STARTCHAR 0067
ENCODING 103
SWIDTH 588 0
DWIDTH 10 0
BBX 8 13 1 -4
BITMAP
7F
FF
C7
C7
C7
C7
C7
FF
7F
07
07
7F
7E
ENDCHAR
STARTCHAR 0068
ENCODING 104
SWIDTH 588 0
DWIDTH 10 0
BBX 8 13 1 0
BITMAP
E0
E0
E0
E0
FE
FF
E3
E3
E3
E3
E3
E3
E3
ENDCHAR
STARTCHAR 0069
ENCODING 105
SWIDTH 294 0
DWIDTH 5 0
BBX 3 13 1 0
BITMAP
E0
E0
E0
00
E0
E0
E0
E0
E0
E0
E0
E0
E0
ENDCHAR
STARTCHAR 006A
ENCODING 106
SWIDTH 294 0
DWIDTH 5 0
BBX 4 17 0 -4
BITMAP
70
70
70
00
70
70
70
70
70
70
70
70
70
70
60
E0
C0
ENDCHAR
STARTCHAR 006B
ENCODING 107
SWIDTH 588 0
DWIDTH 10 0
BBX 8 13 1 0
BITMAP
E0
E0
E0
E0
E7
EE
FC
F8
FC
EC
EE
E7
E3
ENDCHAR
STARTCHAR 006C
ENCODING 108
SWIDTH 294 0
DWIDTH 5 0
BBX 4 13 1 0
BITMAP
E0
E0
E0
E0
E0
E0
E0
E0
E0
E0
E0
70
70
ENDCHAR
STARTCHAR 006D
ENCODING 109
SWIDTH 882 0
DWIDTH 15 0
BBX 13 9 1 0
BITMAP
FFF0
FFF8
E318
E318
E318
E318
E318
E318
E318
ENDCHAR
STARTCHAR 006E
ENCODING 110
SWIDTH 588 0
DWIDTH 10 0
BBX 8 9 1 0
BITMAP
FE
FF
E3
E3
E3
E3
E3
E3
E3
ENDCHAR
STARTCHAR 006F
ENCODING 111
SWIDTH 588 0
DWIDTH 10 0
BBX 8 9 1 0
BITMAP
7E
FF
C3
C3
C3
C3
C3
FF
7E
ENDCHAR
STARTCHAR 0070
ENCODING 112
SWIDTH 588 0
DWIDTH 10 0
BBX 8 13 1 -4
BITMAP
FE
FF
E3
E3
E3
E3
E3
FF
FE
E0
E0
E0
E0
ENDCHAR
STARTCHAR 0071
ENCODING 113
SWIDTH 588 0
DWIDTH 10 0
BBX 8 13 1 -4
BITMAP
7F
FF
C7
C7
C7
C7
C7
FF
7F
07
07
07
07
ENDCHAR
STARTCHAR 0072
ENCODING 114
SWIDTH 411 0
DWIDTH 7 0
BBX 5 9 1 0
BITMAP
78
F8
E0
E0
E0
E0
E0
E0
E0
ENDCHAR
STARTCHAR 0073
ENCODING 115
SWIDTH 529 0
DWIDTH 9 0
BBX 7 9 1 0
BITMAP
7C
FC
C0
E0
7C
0E
0E
FE
FC
ENDCHAR
STARTCHAR 0074
ENCODING 116
SWIDTH 411 0
DWIDTH 7 0
BBX 6 12 1 0
BITMAP
E0
E0
E0
F8
F8
E0
E0
E0
E0
E0
FC
78
ENDCHAR
STARTCHAR 0075
ENCODING 117
SWIDTH 588 0
DWIDTH 10 0
BBX 8 9 1 0
BITMAP
E3
E3
E3
E3
E3
E3
E3
FF
7F
ENDCHAR
STARTCHAR 0076
ENCODING 118
SWIDTH 529 0
DWIDTH 9 0
BBX 9 9 0 0
BITMAP
E180
6380
6300
7300
3300
3700
3E00
1E00
1E00
ENDCHAR
STARTCHAR 0077
ENCODING 119
SWIDTH 823 0
DWIDTH 14 0
BBX 14 9 0 0
BITMAP
E31C
6798
6798
6798
6798
7CF8
3CF0
3CF0
3CF0
ENDCHAR
STARTCHAR 0078
ENCODING 120
SWIDTH 529 0
DWIDTH 9 0
BBX 9 9 0 0
BITMAP
6380
7300
3E00
1E00
1C00
1E00
3E00
7300
E380
ENDCHAR
STARTCHAR 0079
ENCODING 121
SWIDTH 529 0
DWIDTH 9 0
BBX 9 13 0 -4
BITMAP
E180
6380
6380
7300
3300
3700
3E00
1E00
1E00
0C00
0C00
1C00
1C00
ENDCHAR
STARTCHAR 007A
ENCODING 122
SWIDTH 529 0
DWIDTH 9 0
BBX 7 9 1 0
BITMAP
FE
FE
0C
1C
38
70
E0
FE
FE
ENDCHAR
STARTCHAR 007B
ENCODING 123
SWIDTH 411 0
DWIDTH 7 0
BBX 6 16 1 -3
BITMAP
3C
7C
70
70
70
70
70
E0
E0
70
70
70
70
70
7C
3C
ENDCHAR
STARTCHAR 007C
ENCODING 124
SWIDTH 294 0
DWIDTH 5 0
BBX 2 17 2 -4
BITMAP
C0
C0
C0
C0
C0
C0
C0
C0
C0
C0
C0
C0
C0
C0
C0
C0
C0
ENDCHAR
STARTCHAR 007D
ENCODING 125
SWIDTH 411 0
DWIDTH 7 0
BBX 5 16 1 -3
BITMAP
E0
F0
30
30
30
30
30
38
18
30
30
30
30
30
F0
E0
ENDCHAR
STARTCHAR 007E
ENCODING 126
SWIDTH 588 0
DWIDTH 10 0
BBX 8 4 1 4
BITMAP
72
FB
DF
8E
ENDCHAR
STARTCHAR 00A0
ENCODING 160
SWIDTH 235 0
DWIDTH 4 0
BBX 0 0 0 0
BITMAP
ENDCHAR
STARTCHAR 00A1
ENCODING 161
SWIDTH 294 0
DWIDTH 5 0
BBX 3 12 1 -3
BITMAP
E0
E0
E0
00
E0
E0
E0
E0
E0
E0
E0
E0
ENDCHAR
STARTCHAR 00A2
ENCODING 162
SWIDTH 588 0
DWIDTH 10 0
BBX 7 13 1 -2
BITMAP
18
18
7E
7E
E0
E0
E0
E0
E0
7E
7E
18
18
ENDCHAR
STARTCHAR 00A3
ENCODING 163
SWIDTH 588 0
DWIDTH 10 0
BBX 8 12 1 0
BITMAP
3E
3F
70
70
70
FC
FC
70
70
70
FF
FF
ENDCHAR
STARTCHAR 00A4
ENCODING 164
SWIDTH 588 0
DWIDTH 10 0
BBX 8 8 1 2
BITMAP
C3
FE
7E
66
66
7E
FE
C3
ENDCHAR
STARTCHAR 00A5
ENCODING 165
SWIDTH 588 0
DWIDTH 10 0
BBX 10 12 0 0
BITMAP
E1C0
6180
7380
3300
3F00
1E00
1E00
7F00
0C00
7F00
0C00
0C00
ENDCHAR
STARTCHAR 00A6
ENCODING 166
SWIDTH 294 0
DWIDTH 5 0
BBX 2 17 2 -4
BITMAP
C0
C0
C0
C0
C0
C0
00
00
00
00
00
C0
C0
C0
C0
C0
C0
ENDCHAR
STARTCHAR 00A7
ENCODING 167
SWIDTH 529 0
DWIDTH 9 0
BBX 7 14 1 -2
BITMAP
7C
FE
E0
E0
7C
EE
E6
E6
F6
7C
0E
06
FE
7C
ENDCHAR
STARTCHAR 00A8
ENCODING 168
SWIDTH 529 0
DWIDTH 9 0
BBX 5 2 2 10
BITMAP
D8
D8
ENDCHAR
STARTCHAR 00A9
ENCODING 169
SWIDTH 823 0
DWIDTH 14 0
BBX 12 13 1 0
BITMAP
3FE0
FFF0
C030
CF30
DF30
D830
D830
D830
DF30
CF30
C030
FFF0
3FE0
ENDCHAR
STARTCHAR 00AA
ENCODING 170
SWIDTH 411 0
DWIDTH 7 0
BBX 5 7 1 5
BITMAP
F8
F8
18
F8
98
F8
F8
ENDCHAR
STARTCHAR 00AB
ENCODING 171
SWIDTH 588 0
DWIDTH 10 0
BBX 8 9 1 1
BITMAP
22
33
77
EE
CC
EE
77
33
22
ENDCHAR
STARTCHAR 00AC
ENCODING 172
SWIDTH 588 0
DWIDTH 10 0
BBX 8 5 1 3
BITMAP
FF
FF
03
03
03
ENDCHAR
STARTCHAR 00AD
ENCODING 173
SWIDTH 352 0
DWIDTH 6 0
BBX 5 2 1 4
BITMAP
F8
F8
ENDCHAR
STARTCHAR 00AE
ENCODING 174
SWIDTH 823 0
DWIDTH 14 0
BBX 12 13 1 0
BITMAP
3FE0
FFF0
C030
CF30
CFB0
C9B0
CFB0
CF30
CB30
C9B0
C030
FFF0
3FE0
ENDCHAR
STARTCHAR 00AF
ENCODING 175
SWIDTH 529 0
DWIDTH 9 0
BBX 5 2 2 10
BITMAP
F8
F8
ENDCHAR
STARTCHAR 00B0
ENCODING 176
SWIDTH 411 0
DWIDTH 7 0
BBX 5 6 1 6
BITMAP
F8
F8
D8
D8
F8
F8
ENDCHAR
STARTCHAR 00B1
ENCODING 177
SWIDTH 588 0
DWIDTH 10 0
BBX 8 11 1 0
BITMAP
18
18
18
FF
FF
18
18
18
00
FF
FF
ENDCHAR
STARTCHAR 00B2
ENCODING 178
SWIDTH 352 0
DWIDTH 6 0
BBX 5 8 1 4
BITMAP
F0
F8
18
70
E0
80
F8
F8
ENDCHAR
STARTCHAR 00B3
ENCODING 179
SWIDTH 352 0
DWIDTH 6 0
BBX 5 8 1 4
BITMAP
F0
F8
18
F0
F0
18
F8
F0
ENDCHAR
STARTCHAR 00B4
ENCODING 180
SWIDTH 529 0
DWIDTH 9 0
BBX 3 4 3 10
BITMAP
20
60
C0
80
ENDCHAR
STARTCHAR 00B5
ENCODING 181
SWIDTH 588 0
DWIDTH 10 0
BBX 8 13 1 -4
BITMAP
E3
E3
E3
E3
E3
E3
E3
FF
FE
E0
E0
E0
E0
ENDCHAR
STARTCHAR 00B6
ENCODING 182
SWIDTH 647 0
DWIDTH 11 0
BBX 9 15 1 -3
BITMAP
7B80
FB80
FB80
FB80
FB80
FB80
FB80
7B80
0380
0380
0380
0380
0380
0380
0380
ENDCHAR
STARTCHAR 00B7
ENCODING 183
SWIDTH 294 0
DWIDTH 5 0
BBX 3 3 1 4
BITMAP
E0
E0
E0
ENDCHAR
STARTCHAR 00B8
ENCODING 184
SWIDTH 529 0
DWIDTH 9 0
BBX 4 5 2 -4
BITMAP
30
30
30
F0
60
ENDCHAR
STARTCHAR 00B9
ENCODING 185
SWIDTH 352 0
DWIDTH 6 0
BBX 5 8 1 4
BITMAP
E0
E0
60
60
60
60
F8
F8
ENDCHAR
STARTCHAR 00BA
ENCODING 186
SWIDTH 411 0
DWIDTH 7 0
BBX 6 7 1 5
BITMAP
F8
FC
CC
CC
CC
FC
F8
ENDCHAR
STARTCHAR 00BB
ENCODING 187
SWIDTH 588 0
DWIDTH 10 0
BBX 8 9 1 1
BITMAP
44
CC
EE
77
33
77
EE
CC
44
ENDCHAR
STARTCHAR 00BC
ENCODING 188
SWIDTH 882 0
DWIDTH 15 0
BBX 13 12 1 0
BITMAP
E060
E0C0
60C0
6180
61B0
6360
FB60
FE78
06D8
0CF8
0CF8
1818
ENDCHAR
STARTCHAR 00BD
ENCODING 189
SWIDTH 941 0
DWIDTH 16 0
BBX 14 12 1 0
BITMAP
E060
E0C0
60C0
6180
61F8
637C
FB0C
FE3C
0678
0C60
0C7C
187C
ENDCHAR
STARTCHAR 00BE
ENCODING 190
SWIDTH 823 0
DWIDTH 14 0
BBX 13 12 1 0
BITMAP
F080
F8C0
1980
F180
F360
1B60
FE60
F6D8
0CD8
0CF8
18F8
0818
ENDCHAR
STARTCHAR 00BF
ENCODING 191
SWIDTH 529 0
DWIDTH 9 0
BBX 7 12 1 -3
BITMAP
18
18
18
00
18
78
F8
C0
C0
C0
FE
7E
ENDCHAR
STARTCHAR 00C0
ENCODING 192
SWIDTH 647 0
DWIDTH 11 0
BBX 11 17 0 0
BITMAP
0800
1C00
0600
0400
0000
0F00
1F00
1B00
1B80
3980
3980
3180
3FC0
7FC0
60C0
60E0
E060
ENDCHAR
STARTCHAR 00C1
ENCODING 193
SWIDTH 647 0
DWIDTH 11 0
BBX 11 17 0 0
BITMAP
0200
0700
0E00
0400
0000
0F00
1F00
1B00
1B80
3980
3980
3180
3FC0
7FC0
60C0
60E0
E060
ENDCHAR
STARTCHAR 00C2
ENCODING 194
SWIDTH 647 0
DWIDTH 11 0
BBX 11 17 0 0
BITMAP
0400
0E00
1B00
0900
0000
0F00
1F00
1B00
1B80
3980
3980
3180
3FC0
7FC0
60C0
60E0
E060
ENDCHAR
STARTCHAR 00C3
ENCODING 195
SWIDTH 647 0
DWIDTH 11 0
BBX 11 16 0 0
BITMAP
0D00
1D80
1300
0000
0F00
1F00
1B00
1B80
3980
3980
3180
3FC0
7FC0
60C0
60E0
E060
ENDCHAR
STARTCHAR 00C4
ENCODING 196
SWIDTH 647 0
DWIDTH 11 0
BBX 11 15 0 0
BITMAP
1B00
1B00
0000
0F00
1F00
1B00
1B80
3980
3980
3180
3FC0
7FC0
60C0
60E0
E060
ENDCHAR
STARTCHAR 00C5
ENCODING 197
SWIDTH 647 0
DWIDTH 11 0
BBX 11 17 0 0
BITMAP
0E00
0B00
0B00
0E00
0000
0F00
1F00
1B00
1B80
3980
3980
3180
3FC0
7FC0
60C0
60E0
E060
ENDCHAR
STARTCHAR 00C6
ENCODING 198
SWIDTH 941 0
DWIDTH 16 0
BBX 15 12 0 0
BITMAP
0FFE
1FFE
19C0
19C0
39C0
39FC
31FC
3FC0
7FC0
61C0
61FE
E1FE
ENDCHAR
STARTCHAR 00C7
ENCODING 199
SWIDTH 647 0
DWIDTH 11 0
BBX 9 16 1 -4
BITMAP
7F00
FF80
E000
E000
E000
E000
E000
E000
E000
E000
FF80
7F00
0600
0600
1C00
0800
ENDCHAR
STARTCHAR 00C8
ENCODING 200
SWIDTH 588 0
DWIDTH 10 0
BBX 8 17 1 0
BITMAP
10
38
1C
08
00
FF
FF
E0
E0
E0
FF
FF
E0
E0
E0
FF
FF
ENDCHAR
STARTCHAR 00C9
ENCODING 201
SWIDTH 588 0
DWIDTH 10 0
BBX 8 17 1 0
BITMAP
04
0E
1C
08
00
FF
FF
E0
E0
E0
FF
FF
E0
E0
E0
FF
FF
ENDCHAR
STARTCHAR 00CA
ENCODING 202
SWIDTH 588 0
DWIDTH 10 0
BBX 8 17 1 0
BITMAP
08
1C
36
22
00
FF
FF
E0
E0
E0
FF
FF
E0
E0
E0
FF
FF
ENDCHAR
STARTCHAR 00CB
ENCODING 203
SWIDTH 588 0
DWIDTH 10 0
BBX 8 15 1 0
BITMAP
36
36
00
FF
FF
E0
E0
E0
FF
FF
E0
E0
E0
FF
FF
ENDCHAR
STARTCHAR 00CC
ENCODING 204
SWIDTH 294 0
DWIDTH 5 0
BBX 4 17 0 0
BITMAP
40
E0
30
20
00
70
70
70
70
70
70
70
70
70
70
70
70
ENDCHAR
STARTCHAR 00CD
ENCODING 205
SWIDTH 294 0
DWIDTH 5 0
BBX 4 17 1 0
BITMAP
20
70
E0
40
00
E0
E0
E0
E0
E0
E0
E0
E0
E0
E0
E0
E0
ENDCHAR
STARTCHAR 00CE
ENCODING 206
SWIDTH 294 0
DWIDTH 5 0
BBX 5 17 0 0
BITMAP
20
70
D8
88
00
70
70
70
70
70
70
70
70
70
70
70
70
ENDCHAR
STARTCHAR 00CF
ENCODING 207
SWIDTH 294 0
DWIDTH 5 0
BBX 5 15 0 0
BITMAP
D8
D8
00
70
70
70
70
70
70
70
70
70
70
70
70
ENDCHAR
STARTCHAR 00D0
ENCODING 208
SWIDTH 705 0
DWIDTH 12 0
BBX 11 12 0 0
BITMAP
3F80
3FC0
30E0
30E0
30E0
FCE0
FCE0
30E0
30E0
30E0
3FC0
3F80
ENDCHAR
STARTCHAR 00D1
ENCODING 209
SWIDTH 764 0
DWIDTH 13 0
BBX 10 16 1 0
BITMAP
1900
3700
1600
0000
E0C0
F0C0
F8C0
F8C0
FCC0
ECC0
EEC0
E6C0
E7C0
E3C0
E1C0
E1C0
ENDCHAR
STARTCHAR 00D2
ENCODING 210
SWIDTH 705 0
DWIDTH 12 0
BBX 10 17 1 0
BITMAP
0800
1800
0C00
0400
0000
7F80
FFC0
E1C0
E1C0
E1C0
E1C0
E1C0
E1C0
E1C0
E1C0
FFC0
7F80
ENDCHAR
STARTCHAR 00D3
ENCODING 211
SWIDTH 705 0
DWIDTH 12 0
BBX 10 17 1 0
BITMAP
0400
0600
0C00
0800
0000
7F80
FFC0
E1C0
E1C0
E1C0
E1C0
E1C0
E1C0
E1C0
E1C0
FFC0
7F80
ENDCHAR
STARTCHAR 00D4
ENCODING 212
SWIDTH 705 0
DWIDTH 12 0
BBX 10 17 1 0
BITMAP
0400
0C00
3F00
1200
0000
7F80
FFC0
E1C0
E1C0
E1C0
E1C0
E1C0
E1C0
E1C0
E1C0
FFC0
7F80
ENDCHAR
STARTCHAR 00D5
ENCODING 213
SWIDTH 705 0
DWIDTH 12 0
BBX 10 16 1 0
BITMAP
1900
3F00
2600
0000
7F80
FFC0
E1C0
E1C0
E1C0
E1C0
E1C0
E1C0
E1C0
E1C0
FFC0
7F80
ENDCHAR
STARTCHAR 00D6
ENCODING 214
SWIDTH 705 0
DWIDTH 12 0
BBX 10 15 1 0
BITMAP
3300
3300
0000
7F80
FFC0
E1C0
E1C0
E1C0
E1C0
E1C0
E1C0
E1C0
E1C0
FFC0
7F80
ENDCHAR
STARTCHAR 00D7
ENCODING 215
SWIDTH 588 0
DWIDTH 10 0
BBX 8 7 1 2
BITMAP
46
EF
7C
38
7C
EF
46
ENDCHAR
STARTCHAR 00D8
ENCODING 216
SWIDTH 705 0
DWIDTH 12 0
BBX 10 12 1 0
BITMAP
7F80
FFC0
E1C0
E3C0
E7C0
EFC0
FDC0
F9C0
F1C0
E1C0
FFC0
7F80
ENDCHAR
STARTCHAR 00D9
ENCODING 217
SWIDTH 705 0
DWIDTH 12 0
BBX 10 17 1 0
BITMAP
1000
1800
0C00
0400
0000
E1C0
E1C0
E1C0
E1C0
E1C0
E1C0
E1C0
E1C0
E1C0
E1C0
7F80
7F80
ENDCHAR
STARTCHAR 00DA
ENCODING 218
SWIDTH 705 0
DWIDTH 12 0
BBX 10 17 1 0
BITMAP
0400
0600
1C00
0800
0000
E1C0
E1C0
E1C0
E1C0
E1C0
E1C0
E1C0
E1C0
E1C0
E1C0
7F80
7F80
ENDCHAR
STARTCHAR 00DB
ENCODING 219
SWIDTH 705 0
DWIDTH 12 0
BBX 10 17 1 0
BITMAP
0800
0C00
3F00
1200
0000
E1C0
E1C0
E1C0
E1C0
E1C0
E1C0
E1C0
E1C0
E1C0
E1C0
7F80
7F80
ENDCHAR
STARTCHAR 00DC
ENCODING 220
SWIDTH 705 0
DWIDTH 12 0
BBX 10 15 1 0
BITMAP
3300
3300
0000
E1C0
E1C0
E1C0
E1C0
E1C0
E1C0
E1C0
E1C0
E1C0
E1C0
7F80
7F80
ENDCHAR
STARTCHAR 00DD
ENCODING 221
SWIDTH 588 0
DWIDTH 10 0
BBX 10 17 0 0
BITMAP
0200
0600
0C00
0800
0000
E0C0
61C0
7180
3380
3B00
1F00
1E00
0E00
0C00
0C00
0C00
0C00
ENDCHAR
STARTCHAR 00DE
ENCODING 222
SWIDTH 647 0
DWIDTH 11 0
BBX 9 12 1 0
BITMAP
E000
E000
FF00
FF80
E180
E180
E180
E380
FF80
FF00
E000
E000
ENDCHAR
STARTCHAR 00DF
ENCODING 223
SWIDTH 647 0
DWIDTH 11 0
BBX 8 13 1 0
BITMAP
7E
FF
E3
E3
E3
EF
EF
E3
E3
E3
E3
EF
EF
ENDCHAR
STARTCHAR 00E0
ENCODING 224
SWIDTH 529 0
DWIDTH 9 0
BBX 7 14 1 0
BITMAP
20
30
18
08
00
7C
7E
06
7E
FE
C6
C6
FE
7E
ENDCHAR
STARTCHAR 00E1
ENCODING 225
SWIDTH 529 0
DWIDTH 9 0
BBX 7 14 1 0
BITMAP
08
1C
38
10
00
7C
7E
06
7E
FE
C6
C6
FE
7E
ENDCHAR
STARTCHAR 00E2
ENCODING 226
SWIDTH 529 0
DWIDTH 9 0
BBX 7 14 1 0
BITMAP
10
38
6C
24
00
7C
7E
06
7E
FE
C6
C6
FE
7E
ENDCHAR
STARTCHAR 00E3
ENCODING 227
SWIDTH 529 0
DWIDTH 9 0
BBX 7 13 1 0
BITMAP
34
7E
4C
00
7C
7E
06
7E
FE
C6
C6
FE
7E
ENDCHAR
STARTCHAR 00E4
ENCODING 228
SWIDTH 529 0
DWIDTH 9 0
BBX 7 12 1 0
BITMAP
6C
6C
00
7C
7E
06
7E
FE
C6
C6
FE
7E
ENDCHAR
STARTCHAR 00E5
ENCODING 229
SWIDTH 529 0
DWIDTH 9 0
BBX 7 14 1 0
BITMAP
38
2C
2C
38
00
7C
7E
06
7E
FE
C6
C6
FE
7E
ENDCHAR
STARTCHAR 00E6
ENCODING 230
SWIDTH 882 0
DWIDTH 15 0
BBX 13 9 1 0
BITMAP
7FF0
7FF0
0638
7FF8
FFF8
C600
C600
FFF0
7FF0
ENDCHAR
STARTCHAR 00E7
ENCODING 231
SWIDTH 529 0
DWIDTH 9 0
BBX 7 13 1 -4
BITMAP
7E
FE
C0
C0
C0
C0
C0
FE
7E
0C
0C
3C
18
ENDCHAR
STARTCHAR 00E8
ENCODING 232
SWIDTH 588 0
DWIDTH 10 0
BBX 8 14 1 0
BITMAP
20
30
18
08
00
7E
FF
C7
FF
FF
C0
C0
FE
7E
ENDCHAR
STARTCHAR 00E9
ENCODING 233
SWIDTH 588 0
DWIDTH 10 0
BBX 8 14 1 0
BITMAP
08
0C
38
10
00
7E
FF
C7
FF
FF
C0
C0
FE
7E
ENDCHAR
STARTCHAR 00EA
ENCODING 234
SWIDTH 588 0
DWIDTH 10 0
BBX 8 14 1 0
BITMAP
10
18
7E
24
00
7E
FF
C7
FF
FF
C0
C0
FE
7E
ENDCHAR
STARTCHAR 00EB
ENCODING 235
SWIDTH 588 0
DWIDTH 10 0
BBX 8 12 1 0
BITMAP
66
66
00
7E
FF
C7
FF
FF
C0
C0
FE
7E
ENDCHAR
STARTCHAR 00EC
ENCODING 236
SWIDTH 294 0
DWIDTH 5 0
BBX 4 14 0 0
BITMAP
40
E0
70
20
00
70
70
70
70
70
70
70
70
70
ENDCHAR
STARTCHAR 00ED
ENCODING 237
SWIDTH 294 0
DWIDTH 5 0
BBX 4 14 1 0
BITMAP
20
70
C0
40
00
E0
E0
E0
E0
E0
E0
E0
E0
E0
ENDCHAR
STARTCHAR 00EE
ENCODING 238
SWIDTH 294 0
DWIDTH 5 0
BBX 5 14 0 0
BITMAP
20
70
D8
88
00
70
70
70
70
70
70
70
70
70
ENDCHAR
STARTCHAR 00EF
ENCODING 239
SWIDTH 294 0
DWIDTH 5 0
BBX 5 12 0 0
BITMAP
D8
D8
00
70
70
70
70
70
70
70
70
70
ENDCHAR
STARTCHAR 00F0
ENCODING 240
SWIDTH 588 0
DWIDTH 10 0
BBX 8 13 1 0
BITMAP
08
1F
1E
3E
07
7F
FF
C3
C3
C3
C3
FF
7E
ENDCHAR
STARTCHAR 00F1
ENCODING 241
SWIDTH 588 0
DWIDTH 10 0
BBX 8 13 1 0
BITMAP
32
7E
2C
00
FE
FF
E3
E3
E3
E3
E3
E3
E3
ENDCHAR
STARTCHAR 00F2
ENCODING 242
SWIDTH 588 0
DWIDTH 10 0
BBX 8 14 1 0
BITMAP
10
30
18
08
00
7E
FF
C3
C3
C3
C3
C3
FF
7E
ENDCHAR
STARTCHAR 00F3
ENCODING 243
SWIDTH 588 0
DWIDTH 10 0
BBX 8 14 1 0
BITMAP
08
0C
18
10
00
7E
FF
C3
C3
C3
C3
C3
FF
7E
ENDCHAR
STARTCHAR 00F4
ENCODING 244
SWIDTH 588 0
DWIDTH 10 0
BBX 8 14 1 0
BITMAP
08
18
7E
24
00
7E
FF
C3
C3
C3
C3
C3
FF
7E
ENDCHAR
STARTCHAR 00F5
ENCODING 245
SWIDTH 588 0
DWIDTH 10 0
BBX 8 13 1 0
BITMAP
32
7E
4C
00
7E
FF
C3
C3
C3
C3
C3
FF
7E
ENDCHAR
STARTCHAR 00F6
ENCODING 246
SWIDTH 588 0
DWIDTH 10 0
BBX 8 12 1 0
BITMAP
66
66
00
7E
FF
C3
C3
C3
C3
C3
FF
7E
ENDCHAR
STARTCHAR 00F7
ENCODING 247
SWIDTH 588 0
DWIDTH 10 0
BBX 8 8 1 2
BITMAP
18
18
00
FF
FF
00
18
18
ENDCHAR
STARTCHAR 00F8
ENCODING 248
SWIDTH 588 0
DWIDTH 10 0
BBX 8 9 1 0
BITMAP
7E
FF
C7
CF
DB
F3
E3
FF
7E
ENDCHAR
STARTCHAR 00F9
ENCODING 249
SWIDTH 588 0
DWIDTH 10 0
BBX 8 14 1 0
BITMAP
10
30
18
08
00
E3
E3
E3
E3
E3
E3
E3
FF
7F
ENDCHAR
STARTCHAR 00FA
ENCODING 250
SWIDTH 588 0
DWIDTH 10 0
BBX 8 14 1 0
BITMAP
08
0C
18
10
00
E3
E3
E3
E3
E3
E3
E3
FF
7F
ENDCHAR
STARTCHAR 00FB
ENCODING 251
SWIDTH 588 0
DWIDTH 10 0
BBX 8 14 1 0
BITMAP
10
18
7E
24
00
E3
E3
E3
E3
E3
E3
E3
FF
7F
ENDCHAR
STARTCHAR 00FC
ENCODING 252
SWIDTH 588 0
DWIDTH 10 0
BBX 8 12 1 0
BITMAP
66
66
00
E3
E3
E3
E3
E3
E3
E3
FF
7F
ENDCHAR
STARTCHAR 00FD
ENCODING 253
SWIDTH 529 0
DWIDTH 9 0
BBX 9 18 0 -4
BITMAP
0400
0E00
1C00
0800
0000
E180
6380
6380
7300
3300
3700
3E00
1E00
1E00
0C00
0C00
1C00
1C00
ENDCHAR
STARTCHAR 00FE
ENCODING 254
SWIDTH 588 0
DWIDTH 10 0
BBX 8 17 1 -4
BITMAP
E0
E0
E0
E0
FE
FF
E3
E3
E3
E3
E3
FF
FE
E0
E0
E0
E0
ENDCHAR
STARTCHAR 00FF
ENCODING 255
SWIDTH 529 0
DWIDTH 9 0
BBX 9 16 0 -4
BITMAP
3600
3600
0000
E180
6380
6380
7300
3300
3700
3E00
1E00
1E00
0C00
0C00
1C00
1C00
ENDCHAR
STARTCHAR 0100
ENCODING 256
SWIDTH 647 0
DWIDTH 11 0
BBX 11 15 0 0
BITMAP
1F00
1F00
0000
0F00
1F00
1B00
1B80
3980
3980
3180
3FC0
7FC0
60C0
60E0
E060
ENDCHAR
STARTCHAR 0101
ENCODING 257
SWIDTH 529 0
DWIDTH 9 0
BBX 7 12 1 0
BITMAP
7C
7C
00
7C
7E
06
7E
FE
C6
C6
FE
7E
ENDCHAR
STARTCHAR 0102
ENCODING 258
SWIDTH 647 0
DWIDTH 11 0
BBX 11 16 0 0
BITMAP
1900
1900
0F00
0000
0F00
1F00
1B00
1B80
3980
3980
3180
3FC0
7FC0
60C0
60E0
E060
ENDCHAR
STARTCHAR 0103
ENCODING 259
SWIDTH 529 0
DWIDTH 9 0
BBX 7 13 1 0
BITMAP
64
64
3C
00
7C
7E
06
7E
FE
C6
C6
FE
7E
ENDCHAR
STARTCHAR 0104
ENCODING 260
SWIDTH 647 0
DWIDTH 11 0
BBX 11 16 0 -4
BITMAP
0F00
1F00
1B00
1B80
3980
3980
3180
3FC0
7FC0
60C0
60E0
E0E0
0180
0180
00E0
0040
ENDCHAR
STARTCHAR 0105
ENCODING 261
SWIDTH 529 0
DWIDTH 9 0
BBX 7 13 1 -4
BITMAP
7C
7E
06
7E
FE
C6
C6
FE
7E
08
08
0E
06
ENDCHAR
STARTCHAR 0106
ENCODING 262
SWIDTH 647 0
DWIDTH 11 0
BBX 9 17 1 0
BITMAP
0400
0600
1C00
0800
0000
7F00
FF80
E000
E000
E000
E000
E000
E000
E000
E000
FF80
7F00
ENDCHAR
STARTCHAR 0107
ENCODING 263
SWIDTH 529 0
DWIDTH 9 0
BBX 7 14 1 0
BITMAP
08
0C
38
10
00
7E
FE
C0
C0
C0
C0
C0
FE
7E
ENDCHAR
STARTCHAR 010C
ENCODING 268
SWIDTH 647 0
DWIDTH 11 0
BBX 9 17 1 0
BITMAP
1200
3F00
1C00
0800
0000
7F00
FF80
E000
E000
E000
E000
E000
E000
E000
E000
FF80
7F00
ENDCHAR
STARTCHAR 010D
ENCODING 269
SWIDTH 529 0
DWIDTH 9 0
BBX 7 14 1 0
BITMAP
24
7E
38
10
00
7E
FE
C0
C0
C0
C0
C0
FE
7E
ENDCHAR
STARTCHAR 010E
ENCODING 270
SWIDTH 705 0
DWIDTH 12 0
BBX 10 17 1 0
BITMAP
1200
3600
1C00
0800
0000
FE00
FF80
E380
E1C0
E1C0
E1C0
E1C0
E1C0
E1C0
E380
FF80
FE00
ENDCHAR
STARTCHAR 010F
ENCODING 271
SWIDTH 705 0
DWIDTH 12 0
BBX 11 14 1 0
BITMAP
0060
0760
0740
0740
0700
7F00
FF00
C700
C700
C700
C700
C700
FF00
7F00
ENDCHAR
STARTCHAR 0110
ENCODING 272
SWIDTH 705 0
DWIDTH 12 0
BBX 11 12 0 0
BITMAP
3F80
3FC0
30E0
30E0
30E0
FCE0
FCE0
30E0
30E0
30E0
3FC0
3F80
ENDCHAR
STARTCHAR 0111
ENCODING 273
SWIDTH 588 0
DWIDTH 10 0
BBX 9 13 1 0
BITMAP
0700
1F80
1F80
0700
7F00
FF00
C700
C700
C700
C700
C700
FF00
7F00
ENDCHAR
STARTCHAR 0112
ENCODING 274
SWIDTH 588 0
DWIDTH 10 0
BBX 8 15 1 0
BITMAP
3E
3E
00
FF
FF
E0
E0
E0
FF
FF
E0
E0
E0
FF
FF
ENDCHAR
STARTCHAR 0113
ENCODING 275
SWIDTH 588 0
DWIDTH 10 0
BBX 8 12 1 0
BITMAP
7C
7C
00
7E
FF
C7
FF
FF
C0
C0
FE
7E
ENDCHAR
STARTCHAR 0116
ENCODING 278
SWIDTH 588 0
DWIDTH 10 0
BBX 8 16 1 0
BITMAP
1C
1C
1C
00
FF
FF
E0
E0
E0
FF
FF
E0
E0
E0
FF
FF
ENDCHAR
STARTCHAR 0117
ENCODING 279
SWIDTH 588 0
DWIDTH 10 0
BBX 8 13 1 0
BITMAP
18
18
18
00
7E
FF
C7
FF
FF
C0
C0
FE
7E
ENDCHAR
STARTCHAR 0118
ENCODING 280
SWIDTH 588 0
DWIDTH 10 0
BBX 8 16 1 -4
BITMAP
FF
FF
E0
E0
E0
FF
FF
E0
E0
E0
FF
FF
06
06
07
03
ENDCHAR
STARTCHAR 0119
ENCODING 281
SWIDTH 588 0
DWIDTH 10 0
BBX 8 13 1 -4
BITMAP
7E
FF
C7
FF
FF
C0
C0
FE
7E
08
08
0E
06
ENDCHAR
STARTCHAR 011A
ENCODING 282
SWIDTH 588 0
DWIDTH 10 0
BBX 8 17 1 0
BITMAP
22
36
1C
08
00
FF
FF
E0
E0
E0
FF
FF
E0
E0
E0
FF
FF
ENDCHAR
STARTCHAR 011B
ENCODING 283
SWIDTH 588 0
DWIDTH 10 0
BBX 8 14 1 0
BITMAP
24
7E
18
10
00
7E
FF
C7
FF
FF
C0
C0
FE
7E
ENDCHAR
STARTCHAR 011E
ENCODING 286
SWIDTH 705 0
DWIDTH 12 0
BBX 9 16 1 0
BITMAP
3200
1200
1E00
0000
7F80
FF80
E000
E000
E000
E780
E780
E180
E180
E180
FF80
7F80
ENDCHAR
STARTCHAR 011F
ENCODING 287
SWIDTH 588 0
DWIDTH 10 0
BBX 8 17 1 -4
BITMAP
24
24
3C
00
7F
FF
C7
C7
C7
C7
C7
FF
7F
07
07
7F
7E
ENDCHAR
STARTCHAR 0122
ENCODING 290
SWIDTH 705 0
DWIDTH 12 0
BBX 9 16 1 -4
BITMAP
7F80
FF80
E000
E000
E000
E780
E780
E180
E180
E180
FF80
7F80
0000
0C00
0800
1800
ENDCHAR
STARTCHAR 0123
ENCODING 291
SWIDTH 588 0
DWIDTH 10 0
BBX 8 17 1 -4
BITMAP
0C
18
18
00
7F
FF
C7
C7
C7
C7
C7
FF
7F
07
07
7F
7E
ENDCHAR
STARTCHAR 012A
ENCODING 298
SWIDTH 294 0
DWIDTH 5 0
BBX 5 15 0 0
BITMAP
F8
F8
00
70
70
70
70
70
70
70
70
70
70
70
70
ENDCHAR
STARTCHAR 012B
ENCODING 299
SWIDTH 294 0
DWIDTH 5 0
BBX 5 12 0 0
BITMAP
F8
F8
00
70
70
70
70
70
70
70
70
70
ENDCHAR
STARTCHAR 012E
ENCODING 302
SWIDTH 294 0
DWIDTH 5 0
BBX 4 16 0 -4
BITMAP
70
70
70
70
70
70
70
70
70
70
70
70
C0
C0
70
20
ENDCHAR
STARTCHAR 012F
ENCODING 303
SWIDTH 294 0
DWIDTH 5 0
BBX 4 17 0 -4
BITMAP
70
70
70
00
70
70
70
70
70
70
70
70
F0
C0
C0
F0
60
ENDCHAR
STARTCHAR 0130
ENCODING 304
SWIDTH 294 0
DWIDTH 5 0
BBX 3 16 1 0
BITMAP
E0
E0
E0
00
E0
E0
E0
E0
E0
E0
E0
E0
E0
E0
E0
E0
ENDCHAR
STARTCHAR 0131
ENCODING 305
SWIDTH 294 0
DWIDTH 5 0
BBX 3 9 1 0
BITMAP
E0
E0
E0
E0
E0
E0
E0
E0
E0
ENDCHAR
STARTCHAR 0136
ENCODING 310
SWIDTH 647 0
DWIDTH 11 0
BBX 10 16 1 -4
BITMAP
E1C0
E380
E700
EE00
FC00
FC00
FE00
E600
E700
E380
E380
E1C0
0000
0C00
1800
1800
ENDCHAR
STARTCHAR 0137
ENCODING 311
SWIDTH 588 0
DWIDTH 10 0
BBX 8 17 1 -4
BITMAP
E0
E0
E0
E0
E7
EE
FC
F8
FC
EC
EE
E7
E3
00
18
18
30
ENDCHAR
STARTCHAR 0139
ENCODING 313
SWIDTH 529 0
DWIDTH 9 0
BBX 8 17 1 0
BITMAP
20
30
E0
40
00
E0
E0
E0
E0
E0
E0
E0
E0
E0
E0
FF
FF
ENDCHAR
STARTCHAR 013A
ENCODING 314
SWIDTH 294 0
DWIDTH 5 0
BBX 4 17 1 0
BITMAP
20
70
C0
80
E0
E0
E0
E0
E0
E0
E0
E0
E0
E0
E0
70
70
ENDCHAR
STARTCHAR 013B
ENCODING 315
SWIDTH 529 0
DWIDTH 9 0
BBX 8 16 1 -4
BITMAP
E0
E0
E0
E0
E0
E0
E0
E0
E0
E0
FF
FF
00
18
18
10
ENDCHAR
STARTCHAR 013C
ENCODING 316
SWIDTH 294 0
DWIDTH 5 0
BBX 4 17 1 -4
BITMAP
E0
E0
E0
E0
E0
E0
E0
E0
E0
E0
E0
70
70
00
60
60
40
ENDCHAR
STARTCHAR 013D
ENCODING 317
SWIDTH 529 0
DWIDTH 9 0
BBX 8 13 1 0
BITMAP
06
E6
E4
EC
E0
E0
E0
E0
E0
E0
E0
FF
FF
ENDCHAR
STARTCHAR 013E
ENCODING 318
SWIDTH 411 0
DWIDTH 7 0
BBX 6 14 1 0
BITMAP
0C
E8
E8
F8
E0
E0
E0
E0
E0
E0
E0
E0
70
70
ENDCHAR
STARTCHAR 0141
ENCODING 321
SWIDTH 588 0
DWIDTH 10 0
BBX 9 12 0 0
BITMAP
3000
3000
3000
3200
3E00
3C00
F000
7000
3000
3000
3F80
3F80
ENDCHAR
STARTCHAR 0142
ENCODING 322
SWIDTH 352 0
DWIDTH 6 0
BBX 6 13 0 0
BITMAP
70
70
70
70
78
7C
F0
F0
70
70
30
38
18
ENDCHAR
STARTCHAR 0143
ENCODING 323
SWIDTH 764 0
DWIDTH 13 0
BBX 10 17 1 0
BITMAP
0200
0700
0C00
0400
0000
E0C0
F0C0
F8C0
F8C0
FCC0
ECC0
EEC0
E6C0
E7C0
E3C0
E1C0
E1C0
ENDCHAR
STARTCHAR 0144
ENCODING 324
SWIDTH 588 0
DWIDTH 10 0
BBX 8 14 1 0
BITMAP
04
0C
18
10
00
FE
FF
E3
E3
E3
E3
E3
E3
E3
ENDCHAR
STARTCHAR 0145
ENCODING 325
SWIDTH 764 0
DWIDTH 13 0
BBX 10 16 1 -4
BITMAP
E0C0
F0C0
F8C0
F8C0
FCC0
ECC0
EEC0
E6C0
E7C0
E3C0
E1C0
E1C0
0000
0C00
0C00
0800
ENDCHAR
STARTCHAR 0146
ENCODING 326
SWIDTH 588 0
DWIDTH 10 0
BBX 8 13 1 -4
BITMAP
FE
FF
E3
E3
E3
E3
E3
E3
E3
00
18
18
10
ENDCHAR
STARTCHAR 0147
ENCODING 327
SWIDTH 764 0
DWIDTH 13 0
BBX 10 17 1 0
BITMAP
1100
1B00
0E00
0400
0000
E0C0
F0C0
F8C0
F8C0
FCC0
ECC0
EEC0
E6C0
E7C0
E3C0
E1C0
E1C0
ENDCHAR
STARTCHAR 0148
ENCODING 328
SWIDTH 588 0
DWIDTH 10 0
BBX 8 14 1 0
BITMAP
24
7E
18
08
00
FE
FF
E3
E3
E3
E3
E3
E3
E3
ENDCHAR
STARTCHAR 014C
ENCODING 332
SWIDTH 705 0
DWIDTH 12 0
BBX 10 15 1 0
BITMAP
1F00
1F00
0000
7F80
FFC0
E1C0
E1C0
E1C0
E1C0
E1C0
E1C0
E1C0
E1C0
FFC0
7F80
ENDCHAR
STARTCHAR 014D
ENCODING 333
SWIDTH 588 0
DWIDTH 10 0
BBX 8 12 1 0
BITMAP
3E
3E
00
7E
FF
C3
C3
C3
C3
C3
FF
7E
ENDCHAR
STARTCHAR 0150
ENCODING 336
SWIDTH 705 0
DWIDTH 12 0
BBX 10 17 1 0
BITMAP
0900
1F80
3F00
1200
0000
7F80
FFC0
E1C0
E1C0
E1C0
E1C0
E1C0
E1C0
E1C0
E1C0
FFC0
7F80
ENDCHAR
STARTCHAR 0151
ENCODING 337
SWIDTH 588 0
DWIDTH 10 0
BBX 8 14 1 0
BITMAP
12
3F
7E
24
00
7E
FF
C3
C3
C3
C3
C3
FF
7E
ENDCHAR
STARTCHAR 0152
ENCODING 338
SWIDTH 1000 0
DWIDTH 17 0
BBX 15 12 1 0
BITMAP
7FFE
FFFE
E180
E180
E180
E1FC
E1FC
E180
E180
E180
FFFE
7FFE
ENDCHAR
STARTCHAR 0153
ENCODING 339
SWIDTH 882 0
DWIDTH 15 0
BBX 13 9 1 0
BITMAP
7FF0
FFF8
C318
C3F8
C3F8
C300
C300
FFF8
7FF8
ENDCHAR
STARTCHAR 0154
ENCODING 340
SWIDTH 647 0
DWIDTH 11 0
BBX 9 17 1 0
BITMAP
0400
0E00
1C00
0800
0000
FF00
FF80
E380
E180
E180
E380
FF80
FF00
E700
E300
E380
E180
ENDCHAR
STARTCHAR 0155
ENCODING 341
SWIDTH 411 0
DWIDTH 7 0
BBX 5 14 1 0
BITMAP
10
38
70
20
00
78
F8
E0
E0
E0
E0
E0
E0
E0
ENDCHAR
STARTCHAR 0156
ENCODING 342
SWIDTH 647 0
DWIDTH 11 0
BBX 9 16 1 -4
BITMAP
FF00
FF80
E380
E180
E180
E380
FF80
FF00
E700
E300
E380
E180
0000
1800
1800
1800
ENDCHAR
STARTCHAR 0157
ENCODING 343
SWIDTH 411 0
DWIDTH 7 0
BBX 5 13 1 -4
BITMAP
78
F8
E0
E0
E0
E0
E0
E0
E0
00
C0
C0
80
ENDCHAR
STARTCHAR 0158
ENCODING 344
SWIDTH 647 0
DWIDTH 11 0
BBX 9 17 1 0
BITMAP
2200
3600
1C00
0800
0000
FF00
FF80
E380
E180
E180
E380
FF80
FF00
E700
E300
E380
E180
ENDCHAR
STARTCHAR 0159
ENCODING 345
SWIDTH 411 0
DWIDTH 7 0
BBX 5 14 1 0
BITMAP
48
F8
70
20
00
78
F8
E0
E0
E0
E0
E0
E0
E0
ENDCHAR
STARTCHAR 015A
ENCODING 346
SWIDTH 588 0
DWIDTH 10 0
BBX 8 17 1 0
BITMAP
08
0C
18
10
00
7E
FF
C0
C0
E0
FE
7F
03
03
03
FF
FE
ENDCHAR
STARTCHAR 015B
ENCODING 347
SWIDTH 529 0
DWIDTH 9 0
BBX 7 14 1 0
BITMAP
08
1C
30
20
00
7C
FC
C0
E0
7C
0E
0E
FE
FC
ENDCHAR
STARTCHAR 015E
ENCODING 350
SWIDTH 588 0
DWIDTH 10 0
BBX 8 16 1 -4
BITMAP
7E
FF
C0
C0
E0
FE
7F
03
03
03
FF
FE
0C
0C
3C
18
ENDCHAR
STARTCHAR 015F
ENCODING 351
SWIDTH 529 0
DWIDTH 9 0
BBX 7 13 1 -4
BITMAP
7C
FC
C0
E0
7C
0E
0E
FE
FC
18
18
78
30
ENDCHAR
STARTCHAR 0160
ENCODING 352
SWIDTH 588 0
DWIDTH 10 0
BBX 8 17 1 0
BITMAP
24
7E
18
10
00
7E
FF
C0
C0
E0
FE
7F
03
03
03
FF
FE
ENDCHAR
STARTCHAR 0161
ENCODING 353
SWIDTH 529 0
DWIDTH 9 0
BBX 7 14 1 0
BITMAP
48
6C
38
10
00
7C
FC
C0
E0
7C
0E
0E
FE
FC
ENDCHAR
STARTCHAR 0162
ENCODING 354
SWIDTH 588 0
DWIDTH 10 0
BBX 10 16 0 -4
BITMAP
FFC0
FFC0
0C00
0C00
0C00
0C00
0C00
0C00
0C00
0C00
0C00
0E00
0600
0600
1E00
0C00
ENDCHAR
STARTCHAR 0163
ENCODING 355
SWIDTH 411 0
DWIDTH 7 0
BBX 6 16 1 -4
BITMAP
E0
E0
E0
F8
F8
E0
E0
E0
E0
E0
FC
78
18
18
78
30
ENDCHAR
STARTCHAR 0164
ENCODING 356
SWIDTH 588 0
DWIDTH 10 0
BBX 10 17 0 0
BITMAP
1200
1F00
0E00
0400
0000
FFC0
FFC0
0C00
0C00
0C00
0C00
0C00
0C00
0C00
0C00
0C00
0C00
ENDCHAR
STARTCHAR 0165
ENCODING 357
SWIDTH 411 0
DWIDTH 7 0
BBX 6 14 1 0
BITMAP
0C
08
E8
F8
E0
F8
F8
E0
E0
E0
E0
E0
FC
78
ENDCHAR
STARTCHAR 016A
ENCODING 362
SWIDTH 705 0
DWIDTH 12 0
BBX 10 15 1 0
BITMAP
3E00
3E00
0000
E1C0
E1C0
E1C0
E1C0
E1C0
E1C0
E1C0
E1C0
E1C0
E1C0
7F80
7F80
ENDCHAR
STARTCHAR 016B
ENCODING 363
SWIDTH 588 0
DWIDTH 10 0
BBX 8 12 1 0
BITMAP
3C
3C
00
E3
E3
E3
E3
E3
E3
E3
FF
7F
ENDCHAR
STARTCHAR 016E
ENCODING 366
SWIDTH 705 0
DWIDTH 12 0
BBX 10 17 1 0
BITMAP
1E00
1200
1200
1E00
0000
E1C0
E1C0
E1C0
E1C0
E1C0
E1C0
E1C0
E1C0
E1C0
E1C0
7F80
7F80
ENDCHAR
STARTCHAR 016F
ENCODING 367
SWIDTH 588 0
DWIDTH 10 0
BBX 8 14 1 0
BITMAP
3C
24
24
3C
00
E3
E3
E3
E3
E3
E3
E3
FF
7F
ENDCHAR
STARTCHAR 0170
ENCODING 368
SWIDTH 705 0
DWIDTH 12 0
BBX 10 17 1 0
BITMAP
0900
1B80
3700
1200
0000
E1C0
E1C0
E1C0
E1C0
E1C0
E1C0
E1C0
E1C0
E1C0
E1C0
7F80
7F80
ENDCHAR
STARTCHAR 0171
ENCODING 369
SWIDTH 588 0
DWIDTH 10 0
BBX 8 14 1 0
BITMAP
12
3F
7E
24
00
E3
E3
E3
E3
E3
E3
E3
FF
7F
ENDCHAR
STARTCHAR 0172
ENCODING 370
SWIDTH 705 0
DWIDTH 12 0
BBX 10 16 1 -4
BITMAP
E1C0
E1C0
E1C0
E1C0
E1C0
E1C0
E1C0
E1C0
E1C0
E1C0
7F80
7F80
0C00
0C00
0F00
0600
ENDCHAR
STARTCHAR 0173
ENCODING 371
SWIDTH 588 0
DWIDTH 10 0
BBX 8 13 1 -4
BITMAP
E3
E3
E3
E3
E3
E3
E3
FF
7F
0C
0C
0F
06
ENDCHAR
STARTCHAR 0178
ENCODING 376
SWIDTH 588 0
DWIDTH 10 0
BBX 10 15 0 0
BITMAP
1B00
1B00
0000
E0C0
61C0
7180
3380
3B00
1F00
1E00
0E00
0C00
0C00
0C00
0C00
ENDCHAR
STARTCHAR 0179
ENCODING 377
SWIDTH 588 0
DWIDTH 10 0
BBX 9 17 1 0
BITMAP
0400
0C00
1800
1000
0000
FF00
FF00
0700
0E00
0E00
1C00
3800
3000
7000
E000
FF80
FF80
ENDCHAR
STARTCHAR 017A
ENCODING 378
SWIDTH 529 0
DWIDTH 9 0
BBX 7 14 1 0
BITMAP
08
1C
30
10
00
FE
FE
0C
1C
38
70
E0
FE
FE
ENDCHAR
STARTCHAR 017B
ENCODING 379
SWIDTH 588 0
DWIDTH 10 0
BBX 9 16 1 0
BITMAP
1800
1800
1800
0000
FF00
FF00
0700
0E00
0E00
1C00
3800
3000
7000
E000
FF80
FF80
ENDCHAR
STARTCHAR 017C
ENCODING 380
SWIDTH 529 0
DWIDTH 9 0
BBX 7 13 1 0
BITMAP
38
38
38
00
FE
FE
0C
1C
38
70
E0
FE
FE
ENDCHAR
STARTCHAR 017D
ENCODING 381
SWIDTH 588 0
DWIDTH 10 0
BBX 9 17 1 0
BITMAP
2400
7E00
1C00
0800
0000
FF00
FF00
0700
0E00
0E00
1C00
3800
3000
7000
E000
FF80
FF80
ENDCHAR
STARTCHAR 017E
ENCODING 382
SWIDTH 529 0
DWIDTH 9 0
BBX 7 14 1 0
BITMAP
44
6C
38
10
00
FE
FE
0C
1C
38
70
E0
FE
FE
ENDCHAR
STARTCHAR 0192
ENCODING 402
SWIDTH 588 0
DWIDTH 10 0
BBX 8 16 1 -3
BITMAP
1E
3F
30
30
3E
3E
30
30
30
30
30
30
30
30
F0
F0
ENDCHAR
STARTCHAR 0218
ENCODING 536
SWIDTH 588 0
DWIDTH 10 0
BBX 8 16 1 -4
BITMAP
7E
FF
C0
C0
E0
FE
7F
03
03
03
FF
FE
00
18
18
30
ENDCHAR
STARTCHAR 0219
ENCODING 537
SWIDTH 529 0
DWIDTH 9 0
BBX 7 13 1 -4
BITMAP
7C
FC
C0
E0
7C
0E
0E
FE
FC
00
30
30
30
ENDCHAR
STARTCHAR 021A
ENCODING 538
SWIDTH 588 0
DWIDTH 10 0
BBX 10 16 0 -4
BITMAP
FFC0
FFC0
0C00
0C00
0C00
0C00
0C00
0C00
0C00
0C00
0C00
0C00
0000
0C00
0C00
0800
ENDCHAR
STARTCHAR 021B
ENCODING 539
SWIDTH 411 0
DWIDTH 7 0
BBX 6 16 1 -4
BITMAP
E0
E0
E0
F8
F8
E0
E0
E0
E0
E0
FC
78
00
30
30
20
ENDCHAR
STARTCHAR 0237
ENCODING 567
SWIDTH 294 0
DWIDTH 5 0
BBX 4 13 0 -4
BITMAP
70
70
70
70
70
70
70
70
70
70
60
E0
C0
ENDCHAR
STARTCHAR 02C6
ENCODING 710
SWIDTH 529 0
DWIDTH 9 0
BBX 5 4 2 10
BITMAP
20
70
F8
90
ENDCHAR
STARTCHAR 02C7
ENCODING 711
SWIDTH 529 0
DWIDTH 9 0
BBX 5 4 2 10
BITMAP
90
F8
70
20
ENDCHAR
STARTCHAR 02C9
ENCODING 713
SWIDTH 529 0
DWIDTH 9 0
BBX 5 2 2 10
BITMAP
F8
F8
ENDCHAR
STARTCHAR 02D8
ENCODING 728
SWIDTH 529 0
DWIDTH 9 0
BBX 5 3 2 10
BITMAP
98
98
F0
ENDCHAR
STARTCHAR 02D9
ENCODING 729
SWIDTH 529 0
DWIDTH 9 0
BBX 2 3 3 10
BITMAP
C0
C0
C0
ENDCHAR
STARTCHAR 02DA
ENCODING 730
SWIDTH 529 0
DWIDTH 9 0
BBX 4 4 2 10
BITMAP
70
D0
D0
70
ENDCHAR
STARTCHAR 02DB
ENCODING 731
SWIDTH 529 0
DWIDTH 9 0
BBX 3 6 3 -4
BITMAP
40
C0
80
80
E0
60
ENDCHAR
STARTCHAR 02DC
ENCODING 732
SWIDTH 529 0
DWIDTH 9 0
BBX 6 3 1 10
BITMAP
64
FC
58
ENDCHAR
STARTCHAR 02DD
ENCODING 733
SWIDTH 529 0
DWIDTH 9 0
BBX 7 4 1 10
BITMAP
24
76
EC
48
ENDCHAR
STARTCHAR 0300
ENCODING 768
SWIDTH 0 0
DWIDTH 0 0
BBX 4 4 -7 10
BITMAP
40
C0
70
20
ENDCHAR
STARTCHAR 0301
ENCODING 769
SWIDTH 0 0
DWIDTH 0 0
BBX 3 4 -6 10
BITMAP
20
60
C0
80
ENDCHAR
STARTCHAR 0302
ENCODING 770
SWIDTH 0 0
DWIDTH 0 0
BBX 6 4 -8 10
BITMAP
10
30
FC
48
ENDCHAR
STARTCHAR 0303
ENCODING 771
SWIDTH 0 0
DWIDTH 0 0
BBX 6 3 -8 10
BITMAP
64
FC
58
ENDCHAR
STARTCHAR 0304
ENCODING 772
SWIDTH 0 0
DWIDTH 0 0
BBX 5 2 -7 10
BITMAP
F8
F8
ENDCHAR
STARTCHAR 0306
ENCODING 774
SWIDTH 0 0
DWIDTH 0 0
BBX 4 3 -7 10
BITMAP
90
90
F0
ENDCHAR
STARTCHAR 0307
ENCODING 775
SWIDTH 0 0
DWIDTH 0 0
BBX 2 3 -6 10
BITMAP
C0
C0
C0
ENDCHAR
STARTCHAR 0308
ENCODING 776
SWIDTH 0 0
DWIDTH 0 0
BBX 6 2 -8 10
BITMAP
CC
CC
ENDCHAR
STARTCHAR 030A
ENCODING 778
SWIDTH 0 0
DWIDTH 0 0
BBX 4 4 -7 10
BITMAP
F0
90
90
F0
ENDCHAR
STARTCHAR 030B
ENCODING 779
SWIDTH 0 0
DWIDTH 0 0
BBX 7 4 -8 10
BITMAP
24
7E
FC
48
ENDCHAR
STARTCHAR 030C
ENCODING 780
SWIDTH 0 0
DWIDTH 0 0
BBX 6 4 -8 10
BITMAP
48
FC
30
10
ENDCHAR
STARTCHAR 0326
ENCODING 806
SWIDTH 0 0
DWIDTH 0 0
BBX 2 3 -6 -4
BITMAP
C0
C0
80
ENDCHAR
STARTCHAR 0327
ENCODING 807
SWIDTH 0 0
DWIDTH 0 0
BBX 4 5 -7 -4
BITMAP
30
30
30
F0
60
ENDCHAR
STARTCHAR 0328
ENCODING 808
SWIDTH 0 0
DWIDTH 0 0
BBX 4 6 -7 -4
BITMAP
20
60
C0
C0
70
20
ENDCHAR
STARTCHAR 03C0
ENCODING 960
SWIDTH 588 0
DWIDTH 10 0
BBX 8 9 1 0
BITMAP
FF
FF
E3
E3
E3
E3
E3
E3
E3
ENDCHAR
STARTCHAR 1E9E
ENCODING 7838
SWIDTH 705 0
DWIDTH 12 0
BBX 10 12 1 0
BITMAP
7F80
7F80
E300
E700
EE00
EF80
EFC0
E0C0
E0C0
E0C0
EFC0
EF80
ENDCHAR
STARTCHAR 2013
ENCODING 8211
SWIDTH 588 0
DWIDTH 10 0
BBX 8 2 1 4
BITMAP
FF
FF
ENDCHAR
STARTCHAR 2014
ENCODING 8212
SWIDTH 1000 0
DWIDTH 17 0
BBX 15 2 1 4
BITMAP
FFFE
FFFE
ENDCHAR
STARTCHAR 2018
ENCODING 8216
SWIDTH 294 0
DWIDTH 5 0
BBX 3 5 1 8
BITMAP
60
60
E0
C0
C0
ENDCHAR
STARTCHAR 2019
ENCODING 8217
SWIDTH 294 0
DWIDTH 5 0
BBX 3 5 1 8
BITMAP
60
E0
C0
C0
80
ENDCHAR
STARTCHAR 201A
ENCODING 8218
SWIDTH 294 0
DWIDTH 5 0
BBX 4 5 0 -2
BITMAP
70
60
60
60
C0
ENDCHAR
STARTCHAR 201C
ENCODING 8220
SWIDTH 470 0
DWIDTH 8 0
BBX 7 5 1 8
BITMAP
66
66
EC
CC
DC
ENDCHAR
STARTCHAR 201D
ENCODING 8221
SWIDTH 470 0
DWIDTH 8 0
BBX 7 5 1 8
BITMAP
6E
EC
CC
CC
98
ENDCHAR
STARTCHAR 201E
ENCODING 8222
SWIDTH 470 0
DWIDTH 8 0
BBX 8 5 0 -2
BITMAP
77
66
66
6C
CC
ENDCHAR
STARTCHAR 2020
ENCODING 8224
SWIDTH 470 0
DWIDTH 8 0
BBX 7 14 1 -2
BITMAP
30
30
30
FE
FE
30
30
30
30
30
30
30
30
30
ENDCHAR
STARTCHAR 2021
ENCODING 8225
SWIDTH 470 0
DWIDTH 8 0
BBX 7 14 1 -2
BITMAP
30
30
30
FE
FE
30
30
30
30
FE
FE
30
30
30
ENDCHAR
STARTCHAR 2022
ENCODING 8226
SWIDTH 352 0
DWIDTH 6 0
BBX 4 4 1 4
BITMAP
F0
F0
F0
F0
ENDCHAR
STARTCHAR 2026
ENCODING 8230
SWIDTH 823 0
DWIDTH 14 0
BBX 12 3 1 0
BITMAP
E630
E630
E630
ENDCHAR
STARTCHAR 2030
ENCODING 8240
SWIDTH 1235 0
DWIDTH 21 0
BBX 20 12 1 0
BITMAP
F08000
F8C000
998000
998000
9B79E0
9BF9F0
FEC930
F6C930
0CC930
0CC930
18F9F0
0879E0
ENDCHAR
STARTCHAR 2039
ENCODING 8249
SWIDTH 352 0
DWIDTH 6 0
BBX 4 9 1 1
BITMAP
20
30
70
E0
C0
E0
70
30
20
ENDCHAR
STARTCHAR 203A
ENCODING 8250
SWIDTH 352 0
DWIDTH 6 0
BBX 4 9 1 1
BITMAP
40
C0
E0
70
30
70
E0
C0
40
ENDCHAR
STARTCHAR 2044
ENCODING 8260
SWIDTH 176 0
DWIDTH 3 0
BBX 7 12 -2 0
BITMAP
04
0E
0C
1C
18
38
30
70
60
E0
C0
C0
ENDCHAR
STARTCHAR 2070
ENCODING 8304
SWIDTH 352 0
DWIDTH 6 0
BBX 5 8 1 4
BITMAP
F0
F8
98
98
98
98
F8
F0
ENDCHAR
STARTCHAR 2074
ENCODING 8308
SWIDTH 352 0
DWIDTH 6 0
BBX 5 8 1 4
BITMAP
60
60
60
D8
D8
F8
F8
18
ENDCHAR
STARTCHAR 2080
ENCODING 8320
SWIDTH 352 0
DWIDTH 6 0
BBX 5 8 1 0
BITMAP
F0
F8
98
98
98
98
F8
F0
ENDCHAR
STARTCHAR 2081
ENCODING 8321
SWIDTH 352 0
DWIDTH 6 0
BBX 5 8 1 0
BITMAP
E0
E0
60
60
60
60
F8
F8
ENDCHAR
STARTCHAR 2082
ENCODING 8322
SWIDTH 352 0
DWIDTH 6 0
BBX 5 8 1 0
BITMAP
F0
F8
18
70
E0
80
F8
F8
ENDCHAR
STARTCHAR 2083
ENCODING 8323
SWIDTH 352 0
DWIDTH 6 0
BBX 5 8 1 0
BITMAP
F0
F8
18
F0
F0
18
F8
F0
ENDCHAR
STARTCHAR 2084
ENCODING 8324
SWIDTH 352 0
DWIDTH 6 0
BBX 5 8 1 0
BITMAP
60
60
60
D8
D8
F8
F8
18
ENDCHAR
STARTCHAR 20AC
ENCODING 8364
SWIDTH 588 0
DWIDTH 10 0
BBX 9 12 0 0
BITMAP
3F80
3F80
3000
3000
FF00
3000
FE00
3000
3000
3000
3F80
1F80
ENDCHAR
STARTCHAR 20BA
ENCODING 8378
SWIDTH 588 0
DWIDTH 10 0
BBX 9 12 0 0
BITMAP
3000
3200
3F00
3800
F200
3F00
F000
7180
3180
3380
3F00
3E00
ENDCHAR
STARTCHAR 20BD
ENCODING 8381
SWIDTH 588 0
DWIDTH 10 0
BBX 8 12 1 0
BITMAP
FE
FF
E3
E3
E3
FF
FE
E0
FC
FC
E0
E0
ENDCHAR
STARTCHAR 2113
ENCODING 8467
SWIDTH 294 0
DWIDTH 5 0
BBX 4 13 1 0
BITMAP
E0
E0
E0
E0
E0
E0
E0
E0
E0
E0
E0
70
70
ENDCHAR
STARTCHAR 2122
ENCODING 8482
SWIDTH 823 0
DWIDTH 14 0
BBX 13 6 0 6
BITMAP
FB38
FBB8
33F8
33F8
33D8
3318
ENDCHAR
STARTCHAR 2126
ENCODING 8486
SWIDTH 705 0
DWIDTH 12 0
BBX 10 12 1 0
BITMAP
7F80
FFC0
E1C0
E1C0
E1C0
E1C0
E1C0
E1C0
E1C0
7380
F3C0
F3C0
ENDCHAR
STARTCHAR 212E
ENCODING 8494
SWIDTH 882 0
DWIDTH 15 0
BBX 13 12 1 0
BITMAP
0F80
3060
4010
4010
C018
C018
FFF8
C000
4000
4020
3060
0F80
ENDCHAR
STARTCHAR 2202
ENCODING 8706
SWIDTH 588 0
DWIDTH 10 0
BBX 8 13 1 0
BITMAP
7C
7E
07
07
07
7F
FF
C7
C7
C7
C7
FF
7E
ENDCHAR
STARTCHAR 2206
ENCODING 8710
SWIDTH 647 0
DWIDTH 11 0
BBX 11 12 0 0
BITMAP
0F00
1F00
1B00
1B80
3980
3980
31C0
30C0
70C0
60E0
7FE0
FFE0
ENDCHAR
STARTCHAR 220F
ENCODING 8719
SWIDTH 705 0
DWIDTH 12 0
BBX 10 14 1 -2
BITMAP
FFC0
FFC0
E1C0
E1C0
E1C0
E1C0
E1C0
E1C0
E1C0
E1C0
E1C0
E1C0
E1C0
E1C0
ENDCHAR
STARTCHAR 2211
ENCODING 8721
SWIDTH 588 0
DWIDTH 10 0
BBX 8 14 1 -2
BITMAP
FF
FF
E0
70
30
38
1C
1C
38
30
70
E0
FF
FF
ENDCHAR
STARTCHAR 2212
ENCODING 8722
SWIDTH 588 0
DWIDTH 10 0
BBX 8 2 1 5
BITMAP
FF
FF
ENDCHAR
STARTCHAR 2215
ENCODING 8725
SWIDTH 176 0
DWIDTH 3 0
BBX 7 12 -2 0
BITMAP
04
0E
0C
1C
18
38
30
70
60
E0
C0
C0
ENDCHAR
STARTCHAR 2219
ENCODING 8729
SWIDTH 294 0
DWIDTH 5 0
BBX 3 3 1 4
BITMAP
E0
E0
E0
ENDCHAR
STARTCHAR 221A
ENCODING 8730
SWIDTH 588 0
DWIDTH 10 0
BBX 10 14 0 0
BITMAP
0080
00C0
00C0
00C0
0180
0180
0100
F300
F300
3600
3E00
1E00
1C00
0C00
ENDCHAR
STARTCHAR 221E
ENCODING 8734
SWIDTH 588 0
DWIDTH 10 0
BBX 9 6 1 3
BITMAP
FF00
FF80
9980
9980
FF80
FF00
ENDCHAR
STARTCHAR 222B
ENCODING 8747
SWIDTH 470 0
DWIDTH 8 0
BBX 8 17 0 -4
BITMAP
0E
1F
18
18
18
18
18
18
18
18
18
18
18
18
18
F8
70
ENDCHAR
STARTCHAR 2248
ENCODING 8776
SWIDTH 588 0
DWIDTH 10 0
BBX 8 8 1 2
BITMAP
72
FB
DF
8E
72
FB
DF
8E
ENDCHAR
STARTCHAR 2260
ENCODING 8800
SWIDTH 588 0
DWIDTH 10 0
BBX 8 10 1 1
BITMAP
04
06
FF
FF
18
18
FF
FF
60
20
ENDCHAR
STARTCHAR 2264
ENCODING 8804
SWIDTH 588 0
DWIDTH 10 0
BBX 8 11 1 0
BITMAP
02
0F
3E
F0
C0
F0
3E
0F
02
FF
FF
ENDCHAR
STARTCHAR 2265
ENCODING 8805
SWIDTH 588 0
DWIDTH 10 0
BBX 8 11 1 0
BITMAP
40
F0
7C
1F
03
1F
7C
F0
40
FF
FF
ENDCHAR
STARTCHAR 25CA
ENCODING 9674
SWIDTH 588 0
DWIDTH 10 0
BBX 9 12 0 0
BITMAP
0C00
1E00
3E00
3300
6300
6180
E180
6300
3300
3E00
1E00
0C00
ENDCHAR
STARTCHAR F000
ENCODING 61440
SWIDTH 705 0
DWIDTH 12 0
BBX 10 9 1 1
BITMAP
0800
0C00
0C00
1E00
3F00
3F00
7F80
7F80
FFC0
ENDCHAR
STARTCHAR FB01
ENCODING 64257
SWIDTH 705 0
DWIDTH 12 0
BBX 10 13 1 0
BITMAP
79C0
FDC0
E1C0
E000
FDC0
FDC0
E1C0
E1C0
E1C0
E1C0
E1C0
E1C0
E1C0
ENDCHAR
STARTCHAR FB02
ENCODING 64258
SWIDTH 705 0
DWIDTH 12 0
BBX 11 13 1 0
BITMAP
79C0
FDC0
E1C0
E1C0
FDC0
FDC0
E1C0
E1C0
E1C0
E1C0
E1C0
E0E0
E0E0
ENDCHAR
ENDFONT
